<svg fill="none" xmlns="http://www.w3.org/2000/svg" viewBox="0 0 30 23">
  <g clip-path="url(#8OX07oaCeUkxa)">
    <path d="M6.634 22.39V10.857l-3.498-3.27L0 5.77v14.583c0 1.126.892 2.035 1.99 2.035h4.644z" fill="#4285F4"/>
    <path d="M22.555 22.39H27.2c1.101 0 1.99-.913 1.99-2.036V5.771l-3.552 2.08-3.082 3.007V22.39z" fill="#34A853"/>
    <path d="M6.634 10.858l-.476-4.505.476-4.312 7.96 6.104 7.961-6.104.533 4.079-.533 4.738-7.96 6.105-7.961-6.105z" fill="#EA4335"/>
    <path d="M22.555 2.04v8.818l6.634-5.087V3.058c0-2.516-2.81-3.95-4.776-2.442l-1.858 1.425z" fill="#FBBC04"/>
    <path d="M0 5.771l3.051 2.34 3.583 2.747V2.041L4.776.616C2.806-.893 0 .542 0 3.058V5.77z" fill="#C5221F"/>
  </g>
  <defs>
    <clipPath id="8OX07oaCeUkxa">
      <path fill="#fff" d="M0 0h29.189v22.5H0z"/>
    </clipPath>
  </defs>
</svg>
