<svg fill="none" xmlns="http://www.w3.org/2000/svg" viewBox="0 0 31 33">
  <g clip-path="url(#MkJ-zMXuZXZra)">
    <path d="M8.449 24.446a34.728 34.728 0 013.46 3.834c.883 1.257 1.251 2.11 1.896 3.624.396.838.753 1.087 1.522 1.087.838 0 1.218-.425 1.511-1.082.61-1.43 1.089-2.522 1.843-3.554 1.482-1.992 3.322-3.762 5.13-5.462.49-.482 3.655-3.287 5.08-5.5 0 0 1.752-2.43 1.752-5.825 0-3.176-1.727-5.379-1.727-5.379l-4.973 1-3.02 5.976-.747.824-.15.149-.199.187-.348.298-.499.375-2.69 1.646-6.723 2.916-1.118 4.886z" fill="#34A853"/>
    <path d="M1.51 16.985c1.64 2.815 4.805 5.29 6.946 7.463l11.371-10.12s-1.602 1.575-4.508 1.575c-3.237 0-5.852-1.942-5.852-4.39 0-1.68 1.345-2.833 1.345-2.833l-7.72 1.554-1.582 6.75z" fill="#FBBC04"/>
    <path d="M19.954.52c3.777.915 7.01 2.835 8.965 5.667l-9.088 8.136s1.345-1.174 1.345-2.843c0-2.506-2.809-4.377-5.843-4.377-2.869 0-4.517 1.571-4.517 1.571V3.549L19.954.52z" fill="#4285F4"/>
    <path d="M3.593 4.115C5.848 2.088 9.818 0 15.29 0c2.655 0 4.655.524 4.655.524l-9.137 8.155H4.334l-.741-4.564z" fill="#1A73E8"/>
    <path d="M1.51 16.985S0 14.764 0 11.547c0-3.041 1.574-5.699 3.593-7.432l7.22 4.564-9.303 8.306z" fill="#EA4335"/>
  </g>
  <defs>
    <clipPath id="MkJ-zMXuZXZra">
      <path fill="#fff" d="M0 0h30.643v33H0z"/>
    </clipPath>
  </defs>
</svg>
